<svg width="10" height="10" viewBox="0 0 10 10" fill="none" xmlns="http://www.w3.org/2000/svg">
<path d="M4.67969 9.13232C3.46387 9.13232 2.42627 8.70508 1.56689 7.85059C0.712402 6.99609 0.285156 5.96094 0.285156 4.74512C0.285156 3.5293 0.712402 2.49414 1.56689 1.63965C2.42627 0.780273 3.46387 0.350586 4.67969 0.350586C5.89062 0.350586 6.92334 0.780273 7.77783 1.63965C8.63721 2.49414 9.06689 3.5293 9.06689 4.74512C9.06689 5.96094 8.63721 6.99609 7.77783 7.85059C6.92334 8.70508 5.89062 9.13232 4.67969 9.13232ZM4.68701 1.03906C3.66162 1.03906 2.78516 1.40039 2.05762 2.12305C1.33496 2.8457 0.973633 3.71973 0.973633 4.74512C0.973633 5.76562 1.33496 6.63721 2.05762 7.35986C2.78516 8.08252 3.66162 8.44385 4.68701 8.44385C5.70752 8.44385 6.57666 8.08252 7.29443 7.35986C8.01709 6.63721 8.37842 5.76562 8.37842 4.74512C8.37842 3.71973 8.01709 2.8457 7.29443 2.12305C6.57666 1.40039 5.70752 1.03906 4.68701 1.03906ZM6.81104 7.4917H5.80029L5.19238 6.15137C4.88477 5.47754 4.55273 5.14062 4.19629 5.14062H3.81543V7.4917H2.9585V1.90332H4.5332C5.18262 1.90332 5.68311 2.04004 6.03467 2.31348C6.39111 2.58691 6.56934 2.95801 6.56934 3.42676C6.56934 3.80762 6.44482 4.13477 6.1958 4.4082C5.94678 4.67676 5.6001 4.85742 5.15576 4.9502V4.97217C5.46338 5.04053 5.771 5.38477 6.07861 6.00488L6.81104 7.4917ZM3.81543 2.62842V4.42285H4.50391C5.27539 4.42285 5.66113 4.12256 5.66113 3.52197C5.66113 3.17529 5.55615 2.94092 5.34619 2.81885C5.14111 2.69189 4.81396 2.62842 4.36475 2.62842H3.81543Z" fill="#212529"/>
</svg>
