<svg width="422" height="378" viewBox="0 0 422 378" fill="none" xmlns="http://www.w3.org/2000/svg">
<path fill-rule="evenodd" clip-rule="evenodd" d="M7.89338 4.66424C6.95907 4.52542 6.03191 4.38767 4.82756 3.76862C3.26219 2.87685 1.04461 2.74945 0.00102879 3.38643L0.000129296 0H0L0.000488636 373.356C0.603819 373.21 1.14988 372.987 1.66363 372.779C2.78553 372.322 3.75335 371.927 4.82705 372.53C6.03141 373.142 6.95856 373.278 7.89287 373.415C8.88133 373.56 9.87778 373.705 11.219 374.416C15.2629 371.525 19.4372 370.77 23.6116 371.273C24.5247 371.399 25.4379 371.902 26.0901 372.656C26.8243 373.493 27.6269 373.276 28.4629 373.05C29.2605 372.834 30.0885 372.609 30.9166 373.285H33.656C34.3276 373.608 34.7917 373.432 35.262 373.254C35.7052 373.086 36.1539 372.916 36.7867 373.16C38.0783 373.574 39.4091 373.571 40.7361 373.567C41.8217 373.565 42.9047 373.562 43.9614 373.788C45.3482 373.943 46.6914 374.348 48.0444 374.758C50.0005 375.35 51.9773 375.948 54.1364 375.8C56.1014 375.721 57.9636 375.394 59.8199 375.069C60.921 374.875 62.0201 374.683 63.1372 374.542L63.1923 374.537C64.7363 374.414 66.1543 374.3 67.5724 375.045C68.8769 375.926 70.5728 376.051 72.0077 375.549C74.0949 374.668 75.9211 374.793 77.4864 376.554H78.0082C80.5023 376.136 82.5457 374.849 84.3631 373.704C84.732 373.472 85.0916 373.245 85.4438 373.034C87.0086 373.128 87.6935 373.999 88.3231 374.801C88.5333 375.068 88.7374 375.328 88.9658 375.549C89.4391 375.666 89.9123 375.791 90.385 375.915C93.9513 376.854 97.4808 377.783 100.707 375.674C102.149 375.674 102.883 376.358 103.43 376.868C103.625 377.05 103.796 377.21 103.968 377.308C106.318 378.063 108.308 377.622 110.152 377.213C111.993 376.805 113.687 376.429 115.447 377.308C115.812 376.867 116.179 376.364 116.59 375.799C116.765 375.559 116.948 375.307 117.143 375.045C118.689 375.463 120.148 375.117 121.546 374.785C123.096 374.416 124.573 374.066 126.013 374.794C126.724 374.657 127.203 374.295 127.682 373.933C128.081 373.632 128.48 373.331 129.014 373.16C130.97 373.411 133.057 373.285 134.883 371.776H134.885C135.927 372.153 136.971 372.531 137.884 372.908C139.086 372.819 140.223 372.414 141.335 372.017C143.359 371.296 145.301 370.603 147.407 371.902C150.485 370.913 153.466 371.121 156.439 371.327C158.381 371.462 160.319 371.597 162.278 371.399C162.498 371.376 162.72 371.35 162.94 371.324C165.083 371.074 167.251 370.822 168.67 372.53C170.205 372.672 171.452 372.141 172.666 371.626C173.619 371.221 174.55 370.825 175.584 370.77C176.231 370.77 176.72 371.077 177.226 371.393C177.636 371.651 178.057 371.915 178.583 372.027C180.206 371.937 181.822 371.725 183.411 371.515C188.467 370.851 193.268 370.218 197.237 373.662C198.142 373.59 198.654 373.139 199.128 372.723C199.473 372.418 199.798 372.134 200.237 372.027C200.991 371.756 201.745 371.81 202.449 371.863C202.72 371.882 202.984 371.902 203.238 371.902C204.542 371.902 206.107 371.776 206.89 370.896C208.82 368.951 211.162 369.167 213.719 369.403C214.965 369.517 216.262 369.637 217.587 369.513C218.283 370.519 219.388 371.025 220.525 371.544C221.518 371.999 222.535 372.464 223.327 373.285C224.24 373.034 225.022 372.782 225.675 372.53C226.979 372.656 227.631 373.285 228.284 374.039C230.501 373.16 234.154 372.027 236.371 371.525C236.864 371.41 237.328 371.293 237.77 371.182C240.718 370.44 242.666 369.949 245.503 372.027C247.59 373.537 250.068 374.039 252.547 374.165C256.33 374.291 259.852 375.045 263.374 375.926C265.324 376.438 267.274 376.196 269.267 375.949C270.205 375.832 271.153 375.714 272.114 375.674C272.582 375.635 273.05 375.583 273.516 375.532C276.041 375.254 278.522 374.982 280.724 376.68C281.781 376.444 282.027 375.721 282.283 374.965C282.439 374.509 282.597 374.041 282.941 373.662C283.984 373.16 285.417 372.532 286.851 371.904L286.855 371.902C289.471 372.532 292.02 372.001 294.599 371.465C295.62 371.252 296.646 371.039 297.682 370.896C298.702 371.477 299.789 371.916 300.87 372.351C302.832 373.143 304.778 373.928 306.291 375.549C307.518 375.725 308.746 375.875 309.959 376.023C311.326 376.19 312.675 376.354 313.988 376.554C315.162 376.805 316.336 376.805 317.51 376.428C318.684 376.051 319.988 375.926 320.901 376.68C323.38 378.566 325.859 378.189 328.598 377.057C328.706 377.005 328.836 376.974 328.989 376.939C329.205 376.888 329.466 376.827 329.772 376.68C331.99 377.434 334.338 377.308 336.164 375.296C337.972 375.752 339.354 375.019 340.795 374.254C341.745 373.751 342.72 373.233 343.86 373.034C345.54 374.038 347.478 373.953 349.432 373.865C351.879 373.757 354.353 373.647 356.383 375.674C358.079 375.171 359.775 375.171 361.34 375.8C361.967 375.474 362.586 375.092 363.2 374.713C365.903 373.046 368.514 371.435 371.385 374.919C372.361 375.213 373.053 374.682 373.711 374.174C374.461 373.597 375.171 373.052 376.211 373.788C377.616 371.824 379.664 371.939 381.662 372.051C383.375 372.147 385.052 372.241 386.256 371.022C386.917 371.137 387.357 371.441 387.818 371.758C388.357 372.13 388.924 372.521 389.908 372.656C390.589 372.54 391.333 372.246 392.111 371.938C393.866 371.244 395.797 370.479 397.605 371.525C398.909 372.153 400.344 372.153 401.779 371.776C403.084 371.399 404.388 371.399 405.693 371.525C406.47 372.086 407.247 372.579 408.077 373.105C408.362 373.285 408.654 373.47 408.954 373.662C412.606 373.16 415.998 373.914 419.259 375.423C419.39 375.423 419.52 375.549 419.52 375.549C422.951 375.549 426.382 375.091 429.773 374.638C431.41 374.42 433.038 374.203 434.652 374.039C435.006 373.942 435.321 373.835 435.62 373.736C436.091 373.578 436.521 373.433 437 373.356V4.6051C436.521 4.68306 436.091 4.82939 435.62 4.9896C435.322 5.09123 435.006 5.19845 434.652 5.29734C433.038 5.46325 431.41 5.68316 429.773 5.90432C426.382 6.36251 422.951 6.8261 419.52 6.8261C419.52 6.8261 419.39 6.69871 419.259 6.69871C415.998 5.16995 412.606 4.40557 408.954 4.91515C408.654 4.71994 408.363 4.53302 408.078 4.35017C407.247 3.81709 406.47 3.31857 405.693 2.74942C404.388 2.62202 403.084 2.62202 401.779 3.00421C400.344 3.3864 398.909 3.3864 397.605 2.74942C395.798 1.69052 393.866 2.46525 392.111 3.1685C391.333 3.48054 390.59 3.77852 389.908 3.89599C388.924 3.75868 388.357 3.36241 387.818 2.98628C387.357 2.66443 386.917 2.35732 386.256 2.23984C385.052 3.47463 383.375 3.37961 381.662 3.28254C379.664 3.1693 377.616 3.05324 376.211 5.04256C375.171 4.29698 374.461 4.84962 373.712 5.43419C373.053 5.94835 372.361 6.48721 371.385 6.18913C368.514 2.65889 365.904 4.29071 363.2 5.9808C362.586 6.36439 361.968 6.75098 361.34 7.0809C359.775 6.44392 358.079 6.44392 356.383 6.95351C354.353 4.89985 351.879 5.01123 349.433 5.12139C347.478 5.2094 345.54 5.29664 343.86 4.27818C342.721 4.48063 341.745 5.00478 340.795 5.51516C339.354 6.28946 337.972 7.03203 336.164 6.57132C334.338 8.60967 331.99 8.73706 329.772 7.97268C329.466 8.12193 329.205 8.18376 328.989 8.23497C328.836 8.27119 328.706 8.3021 328.598 8.35487C325.859 9.50149 323.38 9.88368 320.901 7.97268C319.988 7.2083 318.684 7.33569 317.51 7.71789C316.336 8.10007 315.162 8.10007 313.988 7.84529C312.675 7.64282 311.326 7.47611 309.959 7.30728C308.746 7.1574 307.518 7.00585 306.291 6.82611C304.778 5.18407 302.832 4.38862 300.87 3.58727C299.789 3.14516 298.702 2.70128 297.682 2.11244C296.646 2.25703 295.62 2.47341 294.599 2.68884C292.02 3.23265 289.471 3.77036 286.855 3.13162C285.42 3.76859 283.985 4.40558 282.941 4.91516C282.597 5.29885 282.439 5.77282 282.284 6.23511C282.027 7.00076 281.781 7.73438 280.724 7.97268C278.522 6.25211 276.041 6.52851 273.516 6.80974C273.05 6.86169 272.582 6.91379 272.114 6.95351C271.153 6.99433 270.205 7.11362 269.267 7.23175C267.275 7.48234 265.325 7.72778 263.374 7.20831C259.852 6.31653 256.33 5.55215 252.547 5.42476C250.068 5.29736 247.59 4.78777 245.503 3.25901C242.666 1.1537 240.718 1.65054 237.77 2.40242C237.328 2.515 236.864 2.6333 236.371 2.74943C234.154 3.25902 230.501 4.40559 228.284 5.29736C227.631 4.53298 226.979 3.896 225.675 3.7686C225.022 4.0234 224.24 4.27819 223.327 4.53298C222.536 3.70122 221.518 3.22964 220.525 2.76937C219.388 2.2427 218.284 1.73085 217.587 0.711087C216.262 0.836304 214.966 0.715371 213.719 0.599188C211.162 0.360755 208.82 0.142331 206.89 2.11245C206.107 3.00422 204.542 3.13162 203.238 3.13163C202.984 3.13163 202.72 3.11195 202.449 3.09174C201.745 3.03921 200.991 2.98302 200.238 3.25902C199.798 3.36652 199.473 3.65545 199.129 3.96313C198.655 4.38472 198.143 4.84153 197.238 4.91517C193.268 1.42604 188.468 2.06606 183.411 2.74023C181.822 2.95223 180.206 3.16759 178.584 3.25902C178.057 3.14489 177.636 2.87741 177.226 2.61684C176.72 2.29569 176.232 1.98506 175.584 1.98506C174.551 2.04108 173.619 2.44195 172.667 2.8519C171.453 3.37425 170.205 3.91136 168.67 3.7686C167.251 2.03691 165.083 2.29294 162.941 2.54582C162.72 2.572 162.498 2.59814 162.278 2.62204C160.319 2.82334 158.382 2.68668 156.44 2.54974C153.467 2.34004 150.485 2.12971 147.407 3.13163C145.302 1.8159 143.359 2.51724 141.335 3.24838C140.223 3.64993 139.086 4.06047 137.884 4.1508C136.971 3.76865 135.928 3.3865 134.884 3.00435V3.00423C133.058 4.53299 130.97 4.66039 129.014 4.4056C128.48 4.57932 128.081 4.88465 127.682 5.18998C127.203 5.55638 126.725 5.92278 126.013 6.06175C124.573 5.32495 123.097 5.67989 121.547 6.05262C120.148 6.3888 118.69 6.73944 117.143 6.31655C116.948 6.58263 116.766 6.83736 116.59 7.08076C116.18 7.65311 115.813 8.16275 115.447 8.60968C113.688 7.71868 111.993 8.09942 110.153 8.51304C108.309 8.92739 106.318 9.37468 103.968 8.60968C103.796 8.50938 103.626 8.34767 103.431 8.16368C102.883 7.64658 102.15 6.95352 100.707 6.95352C97.4818 9.0908 93.9513 8.14903 90.3854 7.19773C89.9128 7.07165 89.4396 6.94541 88.9663 6.82613C88.7377 6.60295 88.5338 6.33987 88.3236 6.06884C87.694 5.25693 87.009 4.37371 85.4442 4.27821C85.092 4.49316 84.7324 4.72264 84.3635 4.95805C82.546 6.11779 80.5027 7.4217 78.0087 7.84531H77.4869C75.9215 6.06175 74.0953 5.93436 72.0081 6.82613C70.5732 7.33572 68.8774 7.20832 67.5729 6.31655C66.1548 5.56117 64.7368 5.67668 63.1929 5.80246L63.1377 5.80696C62.0206 5.94926 60.9214 6.14456 59.8204 6.34022C57.9641 6.67006 56.1019 7.00097 54.1368 7.08093C51.9778 7.23154 50.001 6.62541 48.0449 6.02561C46.6918 5.61071 45.3487 5.19886 43.9618 5.04259C42.9053 4.81328 41.8223 4.81614 40.7366 4.81901C39.4097 4.82251 38.0787 4.82602 36.7873 4.4056C36.1543 4.15836 35.7057 4.33097 35.2625 4.50146C34.7922 4.68238 34.3281 4.86093 33.6565 4.533H30.9171C30.089 3.84873 29.261 4.07571 28.4633 4.29436C27.6273 4.5235 26.8248 4.74348 26.0906 3.89602C25.4383 3.13164 24.5252 2.62205 23.6121 2.49465C19.4377 1.98507 15.2634 2.74945 11.2195 5.67957C9.87834 4.95915 8.88183 4.8111 7.89338 4.66424Z" fill="#CAD4BD"/>
</svg>
